<mxfile host="app.diagrams.net" modified="2024-02-19T20:14:47.863Z" agent="Mozilla/5.0 (Macintosh; Intel Mac OS X 10_15_7) AppleWebKit/537.36 (KHTML, like Gecko) Chrome/121.0.0.0 Safari/537.36" etag="EqvU6pCWKaVduQQJIFZN" version="23.1.5" type="github">
  <diagram name="Page-1" id="34sxdz30EEvBzpfn3WbW">
    <mxGraphModel dx="1583" dy="704" grid="1" gridSize="10" guides="1" tooltips="1" connect="1" arrows="1" fold="1" page="1" pageScale="1" pageWidth="850" pageHeight="1100" math="0" shadow="0">
      <root>
        <mxCell id="0" />
        <mxCell id="1" parent="0" />
        <mxCell id="S5gwTWqAQksbmChOUUIe-2" value="loop" style="shape=umlFrame;whiteSpace=wrap;html=1;pointerEvents=0;" vertex="1" parent="1">
          <mxGeometry x="20" y="220" width="540" height="530" as="geometry" />
        </mxCell>
        <mxCell id="S5gwTWqAQksbmChOUUIe-3" value=":User:Miguel" style="html=1;whiteSpace=wrap;" vertex="1" parent="1">
          <mxGeometry x="80" y="110" width="110" height="50" as="geometry" />
        </mxCell>
        <mxCell id="S5gwTWqAQksbmChOUUIe-4" value="&amp;lt;&amp;lt;External System&amp;gt;&amp;gt;: LDAP" style="html=1;whiteSpace=wrap;" vertex="1" parent="1">
          <mxGeometry x="710" y="250" width="110" height="50" as="geometry" />
        </mxCell>
        <mxCell id="S5gwTWqAQksbmChOUUIe-9" value="" style="endArrow=block;startArrow=block;endFill=1;startFill=1;html=1;rounded=0;entryX=0;entryY=0.5;entryDx=0;entryDy=0;" edge="1" parent="1" source="S5gwTWqAQksbmChOUUIe-17" target="S5gwTWqAQksbmChOUUIe-4">
          <mxGeometry width="160" relative="1" as="geometry">
            <mxPoint x="110" y="275" as="sourcePoint" />
            <mxPoint x="590" y="340" as="targetPoint" />
          </mxGeometry>
        </mxCell>
        <mxCell id="S5gwTWqAQksbmChOUUIe-10" value="loggIn(Username, Password)" style="edgeLabel;html=1;align=center;verticalAlign=middle;resizable=0;points=[];" vertex="1" connectable="0" parent="S5gwTWqAQksbmChOUUIe-9">
          <mxGeometry x="-0.0826" y="2" relative="1" as="geometry">
            <mxPoint x="56" y="2" as="offset" />
          </mxGeometry>
        </mxCell>
        <mxCell id="S5gwTWqAQksbmChOUUIe-12" value="[User has application open in]" style="text;html=1;align=center;verticalAlign=middle;whiteSpace=wrap;rounded=0;" vertex="1" parent="1">
          <mxGeometry x="100" y="220" width="90" height="50" as="geometry" />
        </mxCell>
        <mxCell id="S5gwTWqAQksbmChOUUIe-17" value="" style="shape=umlLifeline;perimeter=lifelinePerimeter;whiteSpace=wrap;html=1;container=1;dropTarget=0;collapsible=0;recursiveResize=0;outlineConnect=0;portConstraint=eastwest;newEdgeStyle={&quot;curved&quot;:0,&quot;rounded&quot;:0};participant=umlActor;" vertex="1" parent="1">
          <mxGeometry x="80" y="70" width="20" height="680" as="geometry" />
        </mxCell>
        <mxCell id="S5gwTWqAQksbmChOUUIe-19" value=":Database" style="shape=umlLifeline;perimeter=lifelinePerimeter;whiteSpace=wrap;html=1;container=1;dropTarget=0;collapsible=0;recursiveResize=0;outlineConnect=0;portConstraint=eastwest;newEdgeStyle={&quot;curved&quot;:0,&quot;rounded&quot;:0};" vertex="1" parent="1">
          <mxGeometry x="260" y="120" width="100" height="210" as="geometry" />
        </mxCell>
        <mxCell id="S5gwTWqAQksbmChOUUIe-20" value="" style="html=1;points=[[0,0,0,0,5],[0,1,0,0,-5],[1,0,0,0,5],[1,1,0,0,-5]];perimeter=orthogonalPerimeter;outlineConnect=0;targetShapes=umlLifeline;portConstraint=eastwest;newEdgeStyle={&quot;curved&quot;:0,&quot;rounded&quot;:0};" vertex="1" parent="1">
          <mxGeometry x="305" y="330" width="10" height="390" as="geometry" />
        </mxCell>
        <mxCell id="S5gwTWqAQksbmChOUUIe-25" value="Captain America&#39;s unique BMS" style="html=1;verticalAlign=bottom;endArrow=open;dashed=1;endSize=8;curved=0;rounded=0;" edge="1" parent="1">
          <mxGeometry x="-0.0026" relative="1" as="geometry">
            <mxPoint x="305" y="420" as="sourcePoint" />
            <mxPoint x="94.44736842105272" y="420" as="targetPoint" />
            <mxPoint as="offset" />
          </mxGeometry>
        </mxCell>
        <mxCell id="S5gwTWqAQksbmChOUUIe-28" value="alt" style="shape=umlFrame;whiteSpace=wrap;html=1;pointerEvents=0;" vertex="1" parent="1">
          <mxGeometry x="20" y="390" width="350" height="130" as="geometry" />
        </mxCell>
        <mxCell id="S5gwTWqAQksbmChOUUIe-30" value="alt" style="shape=umlFrame;whiteSpace=wrap;html=1;pointerEvents=0;" vertex="1" parent="1">
          <mxGeometry x="20" y="590" width="350" height="130" as="geometry" />
        </mxCell>
        <mxCell id="S5gwTWqAQksbmChOUUIe-31" value="[Superhero Exists]" style="text;html=1;align=center;verticalAlign=middle;whiteSpace=wrap;rounded=0;" vertex="1" parent="1">
          <mxGeometry x="20" y="430" width="60" height="30" as="geometry" />
        </mxCell>
        <mxCell id="S5gwTWqAQksbmChOUUIe-32" value="[Else]" style="text;html=1;align=center;verticalAlign=middle;whiteSpace=wrap;rounded=0;" vertex="1" parent="1">
          <mxGeometry x="20" y="480" width="60" height="30" as="geometry" />
        </mxCell>
        <mxCell id="S5gwTWqAQksbmChOUUIe-33" value="Error (Not in Database)" style="html=1;verticalAlign=bottom;endArrow=open;dashed=1;endSize=8;curved=0;rounded=0;" edge="1" parent="1">
          <mxGeometry x="0.0013" relative="1" as="geometry">
            <mxPoint x="305" y="500.0000000000001" as="sourcePoint" />
            <mxPoint x="89.78571428571433" y="500.0000000000001" as="targetPoint" />
            <mxPoint as="offset" />
          </mxGeometry>
        </mxCell>
        <mxCell id="S5gwTWqAQksbmChOUUIe-36" value="" style="endArrow=none;dashed=1;html=1;dashPattern=1 3;strokeWidth=2;rounded=0;" edge="1" parent="1">
          <mxGeometry width="50" height="50" relative="1" as="geometry">
            <mxPoint x="89.78571428571433" y="464.64" as="sourcePoint" />
            <mxPoint x="305" y="464.64" as="targetPoint" />
          </mxGeometry>
        </mxCell>
        <mxCell id="S5gwTWqAQksbmChOUUIe-39" value="[Superhero has face-Offs]" style="text;html=1;align=center;verticalAlign=middle;whiteSpace=wrap;rounded=0;" vertex="1" parent="1">
          <mxGeometry x="90" y="590" width="90" height="30" as="geometry" />
        </mxCell>
        <mxCell id="S5gwTWqAQksbmChOUUIe-40" value="[Else]" style="text;html=1;align=center;verticalAlign=middle;whiteSpace=wrap;rounded=0;" vertex="1" parent="1">
          <mxGeometry x="80" y="690" width="60" height="30" as="geometry" />
        </mxCell>
        <mxCell id="S5gwTWqAQksbmChOUUIe-41" value="Captain America&#39;s face-Offs" style="html=1;verticalAlign=bottom;endArrow=open;dashed=1;endSize=8;curved=0;rounded=0;" edge="1" parent="1">
          <mxGeometry x="-0.0026" relative="1" as="geometry">
            <mxPoint x="304.99999999999994" y="640" as="sourcePoint" />
            <mxPoint x="94.44736842105273" y="640" as="targetPoint" />
            <mxPoint as="offset" />
          </mxGeometry>
        </mxCell>
        <mxCell id="S5gwTWqAQksbmChOUUIe-42" value="" style="endArrow=none;dashed=1;html=1;dashPattern=1 3;strokeWidth=2;rounded=0;" edge="1" parent="1">
          <mxGeometry width="50" height="50" relative="1" as="geometry">
            <mxPoint x="87.39571428571433" y="654.68" as="sourcePoint" />
            <mxPoint x="302.61" y="654.68" as="targetPoint" />
          </mxGeometry>
        </mxCell>
        <mxCell id="S5gwTWqAQksbmChOUUIe-43" value="Error (Has no face-Offs)" style="html=1;verticalAlign=bottom;endArrow=open;dashed=1;endSize=8;curved=0;rounded=0;" edge="1" parent="1">
          <mxGeometry relative="1" as="geometry">
            <mxPoint x="305.21" y="680.0000000000001" as="sourcePoint" />
            <mxPoint x="89.99571428571434" y="680.0000000000001" as="targetPoint" />
          </mxGeometry>
        </mxCell>
        <mxCell id="S5gwTWqAQksbmChOUUIe-44" value="" style="endArrow=classic;html=1;rounded=0;" edge="1" parent="1">
          <mxGeometry relative="1" as="geometry">
            <mxPoint x="89.5" y="350" as="sourcePoint" />
            <mxPoint x="305" y="350" as="targetPoint" />
          </mxGeometry>
        </mxCell>
        <mxCell id="S5gwTWqAQksbmChOUUIe-45" value="seachFor(CaptainAmerica)" style="edgeLabel;resizable=0;html=1;;align=center;verticalAlign=middle;" connectable="0" vertex="1" parent="S5gwTWqAQksbmChOUUIe-44">
          <mxGeometry relative="1" as="geometry" />
        </mxCell>
        <mxCell id="S5gwTWqAQksbmChOUUIe-46" value="" style="endArrow=classic;html=1;rounded=0;" edge="1" parent="1">
          <mxGeometry relative="1" as="geometry">
            <mxPoint x="90" y="550" as="sourcePoint" />
            <mxPoint x="305.5" y="550" as="targetPoint" />
          </mxGeometry>
        </mxCell>
        <mxCell id="S5gwTWqAQksbmChOUUIe-47" value="getInfo(existingFace-offs)" style="edgeLabel;resizable=0;html=1;;align=center;verticalAlign=middle;" connectable="0" vertex="1" parent="S5gwTWqAQksbmChOUUIe-46">
          <mxGeometry relative="1" as="geometry" />
        </mxCell>
      </root>
    </mxGraphModel>
  </diagram>
</mxfile>
